<?xml version="1.0" encoding="utf-8"?>
<!-- Generator: Adobe Illustrator 24.1.0, SVG Export Plug-In . SVG Version: 6.00 Build 0)  -->
<svg version="1.1" id="Capa_1" xmlns="http://www.w3.org/2000/svg" xmlns:xlink="http://www.w3.org/1999/xlink" x="0px" y="0px"
	 viewBox="0 0 1080 1080" style="enable-background:new 0 0 1080 1080;" xml:space="preserve">
<style type="text/css">
	.st0{fill:#00C7D5;}
	.st1{fill:#FFFFFF;}
	.st2{fill:#0DE7E1;}
	.st3{fill:#40EBC2;}
	.st4{font-family:'ArialRoundedMTBold';}
	.st5{font-size:250px;}
</style>
<g>
	<path class="st0" d="M450,518.4h-33.7c-25.9,0-47.1,4.9-47.1-22.3V140.8c0-27.2,21.2-49.5,47.1-49.5H450
		c25.9,0,47.1,22.3,47.1,49.5V469C497,496.2,475.9,518.4,450,518.4z"/>
	<g>
		<path class="st1" d="M450,514.9c-8,0-16,0-24.1,0c-9.6,0-19.3,0.3-28.9,0.3c-5.4,0-10.9,0-16-2.1c-3.9-1.6-6.5-4.9-7.6-9.6
			c-0.8-3.3-0.7-6.6-0.7-9.9c0-8.5,0-17.1,0-25.6c0-15.6,0-31.1,0-46.7c0-20,0-39.9,0-59.9c0-21.7,0-43.4,0-65.1
			c0-20.7,0-41.5,0-62.2c0-17.3,0-34.7,0-52c0-11.1,0-22.1,0-33.2c0-2.4,0-4.8,0-7.2c0-8.3,1.8-16.4,5.8-23.7
			c6.7-12.2,19.1-21.3,33.1-22.9c3.4-0.4,6.9-0.2,10.3-0.2c5.1,0,10.1,0,15.2,0c9.3,0,18.7-0.6,27.6,2.7c13.2,5,23.2,16.8,27,30.2
			c2.3,8.1,1.8,16.5,1.8,24.8c0,12.7,0,25.5,0,38.2c0,18.7,0,37.4,0,56.2c0,21.4,0,42.8,0,64.2c0,21.2,0,42.3,0,63.5
			c0,17.8,0,35.6,0,53.3c0,11.3,0,22.6,0,33.9c0,2.2,0,4.5,0,6.7c0,10.2-3.1,20.1-9.1,28.4C476.6,508,463.6,514.8,450,514.9
			c-4.5,0-4.5,7,0,7c15.2-0.1,29.6-7.4,39-19.4c7.5-9.6,11.6-21.5,11.6-33.8c0-6.6,0-13.3,0-19.9c0-15,0-29.9,0-44.9
			c0-20.1,0-40.2,0-60.3c0-22.1,0-44.1,0-66.2c0-20.7,0-41.4,0-62.1c0-16.1,0-32.2,0-48.3c0-8.3,0-16.5,0-24.8c0-7.2-1-14.3-3.6-21
			c-5.6-14.2-16.9-25.8-31.4-30.8c-9.3-3.2-19.1-2.6-28.8-2.6c-5.1,0-10.3,0-15.4,0c-3.6,0-7.2-0.1-10.8,0.4
			c-15.2,1.9-28.7,11-36.7,24c-5.4,8.8-8.1,18.9-8.1,29.2c0,6.8,0,13.5,0,20.3c0,14.5,0,29.1,0,43.6c0,19.6,0,39.3,0,58.9
			c0,21.9,0,43.9,0,65.8c0,21.5,0,42.9,0,64.4c0,18.2,0,36.3,0,54.5c0,12.2,0,24.3,0,36.5c0,8-0.8,17,2.5,24.4
			c5,11.4,18.4,12.5,29.3,12.5c9.7,0,19.5-0.3,29.2-0.3c7.8,0,15.5,0,23.3,0C454.5,521.9,454.5,514.9,450,514.9z"/>
	</g>
</g>
<g>
	<path class="st2" d="M369.9,383.5l-1,122c-0.1,10.3,11.1,16.5,20.9,11.5l142.4-73c9.8-5,11.5-17.7,3.2-23.8l-126.8-93.1l-15.2-11.5
		c-9.6-7.2-24.4,0.4-24.2,12.5L369.9,383.5z"/>
	<g>
		<path class="st1" d="M366.4,383.5c0,1.4,0,2.9,0,4.3c0,3.9-0.1,7.8-0.1,11.7c0,5.6-0.1,11.2-0.1,16.8c-0.1,6.6-0.1,13.2-0.2,19.9
			c-0.1,6.9-0.1,13.8-0.2,20.6c-0.1,6.5-0.1,13-0.2,19.5c0,5.3-0.1,10.6-0.1,15.9c0,3.5-0.1,7-0.1,10.4c0,2.9-0.1,5.8,0.9,8.6
			c1.8,4.9,5.7,8.4,10.6,10.1c4.8,1.7,10.1,0.9,14.6-1.3c1-0.5,2.1-1.1,3.1-1.6c2.8-1.4,5.6-2.9,8.4-4.3c4.2-2.1,8.4-4.3,12.5-6.4
			c5.2-2.7,10.4-5.4,15.7-8c5.8-3,11.7-6,17.5-9c6.2-3.2,12.3-6.3,18.5-9.5c6-3.1,12.1-6.2,18.1-9.3c5.6-2.9,11.2-5.7,16.7-8.6
			c4.8-2.4,9.6-4.9,14.3-7.3c3.6-1.8,7.1-3.6,10.7-5.5c2-1,4-2.1,6-3.1c4.6-2.3,8.1-5.8,10-10.7c1.7-4.4,1.4-9.4-0.7-13.6
			c-1.2-2.5-3.2-4.5-5.4-6.1c-1.3-1-2.6-1.9-4-2.9c-2.9-2.1-5.7-4.2-8.6-6.3c-4.1-3-8.1-6-12.2-8.9c-4.9-3.6-9.8-7.2-14.8-10.8
			c-5.4-4-10.8-7.9-16.2-11.9c-5.6-4.1-11.2-8.2-16.8-12.3c-5.4-3.9-10.7-7.9-16.1-11.8c-4.9-3.6-9.7-7.1-14.6-10.7
			c-3.9-2.9-7.9-5.8-11.8-8.7c-2.7-2-5.5-4-8.2-6c-1.1-0.8-2.3-1.7-3.4-2.5c-3.6-2.6-7.1-5.4-10.6-8c-1.5-1.2-3.1-2.3-4.6-3.5
			c-3.9-2.9-8.8-3.7-13.5-3c-8.9,1.4-16.1,9.4-16,18.5c0,3.1,0.1,6.1,0.1,9.2c0.1,6.4,0.2,12.8,0.2,19.2c0.1,6.3,0.2,12.6,0.2,18.9
			C366.3,378.1,366.4,380.8,366.4,383.5c0,1.8,1.6,3.6,3.5,3.5c1.9-0.1,3.5-1.5,3.5-3.5c0-2.8-0.1-5.6-0.1-8.5
			c-0.1-6.2-0.2-12.5-0.2-18.7c-0.1-6.3-0.2-12.6-0.2-19c0-3.1-0.1-6.1-0.1-9.2c0-0.5-0.2-1.6,0.1-2c0,0-0.1,0.7,0,0.3
			c0-0.1,0-0.2,0.1-0.4c0-0.2,0.1-0.5,0.2-0.7c0.1-0.5,0.3-1.1,0.5-1.6c0.2-0.6-0.3,0.6,0,0c0.1-0.2,0.2-0.4,0.3-0.6
			c0.2-0.4,0.5-0.9,0.8-1.3c0.1-0.2,0.3-0.4,0.4-0.6c0-0.1,0.1-0.3,0.2-0.3c0,0-0.5,0.5-0.2,0.3c0.4-0.4,0.7-0.8,1.1-1.2
			c0.3-0.3,0.7-0.6,1-0.9c0,0,0.2-0.2,0.3-0.2c0,0-0.6,0.4-0.3,0.2c0.2-0.2,0.4-0.3,0.7-0.5c0.3-0.2,2.4-1.6,2.6-1.4
			c0,0-0.7,0.3-0.3,0.1c0.1,0,0.2-0.1,0.3-0.1c0.2-0.1,0.4-0.2,0.7-0.2c0.5-0.2,1-0.3,1.4-0.4c0.2-0.1,0.4-0.1,0.7-0.1
			c0.2,0,0.9-0.2,0.3-0.1c-0.5,0.2,0.3,0,0.4,0c0.3,0,0.5,0,0.8,0c0.5,0,0.9,0,1.4,0c0.2,0,0.9,0.1,0.3,0c-0.6-0.1,0.3,0.1,0.4,0.1
			c0.5,0.1,0.9,0.2,1.4,0.3c0.3,0.1,0.5,0.2,0.8,0.3c0.8,0.3-0.4-0.2,0.1,0.1c1,0.5,2,1.1,2.9,1.8c2.1,1.6,4.1,3.1,6.2,4.7
			c2.9,2.2,5.8,4.5,8.8,6.7c1.3,1,2.6,1.9,3.9,2.9c2.8,2.1,5.6,4.1,8.5,6.2c4,2.9,8,5.9,12,8.8c4.8,3.5,9.7,7.1,14.5,10.6
			c5.4,3.9,10.7,7.9,16.1,11.8c5.5,4,11,8.1,16.5,12.1c5.3,3.9,10.7,7.8,16,11.8c4.8,3.6,9.7,7.1,14.5,10.7c4,2.9,8,5.9,12,8.8
			c2.8,2.1,5.7,4.2,8.5,6.2c1.3,1,2.6,2,4,2.9c0.1,0.1,0.4,0.3,0,0c-0.4-0.3,0.2,0.2,0.3,0.3c0.2,0.2,0.4,0.4,0.6,0.6
			c0.2,0.2,0.3,0.3,0.5,0.5c0.1,0.1,0.7,0.8,0.3,0.4c-0.3-0.4,0.1,0.2,0.2,0.3c0.1,0.2,0.3,0.4,0.4,0.6c0.1,0.1,0.8,1.2,0.7,1.3
			c0,0-0.2-0.7-0.1-0.3c0,0.1,0.1,0.2,0.1,0.3c0.1,0.3,0.2,0.5,0.2,0.8c0.1,0.5,0.2,1,0.3,1.4c0.1,0.6,0-0.7,0,0
			c0,0.2,0,0.5,0.1,0.7c0,0.5,0,1,0,1.5c0,0.1-0.1,0.8-0.1,0.8c0,0,0.1-0.7,0-0.4c0,0.1,0,0.2-0.1,0.3c-0.1,0.5-0.2,1-0.4,1.5
			c-0.1,0.2-0.1,0.4-0.2,0.7c-0.1,0.1-0.2,0.8-0.1,0.4c0.1-0.5-0.1,0.2-0.2,0.3c-0.1,0.3-0.2,0.5-0.4,0.7c-0.3,0.5-0.5,0.9-0.8,1.3
			c-0.1,0.1-0.6,0.7-0.2,0.3c0.3-0.4-0.3,0.3-0.4,0.4c-0.3,0.4-0.7,0.7-1.1,1.1c-0.2,0.2-0.4,0.3-0.6,0.5c-0.1,0.1-0.4,0.3,0,0.1
			c0.4-0.3-0.1,0.1-0.2,0.1c-0.7,0.5-1.5,1-2.3,1.4c-0.4,0.2-0.8,0.4-1.2,0.6c-2.2,1.1-4.3,2.2-6.5,3.3c-3.7,1.9-7.3,3.8-11,5.6
			c-4.8,2.5-9.6,4.9-14.4,7.4c-5.6,2.9-11.1,5.7-16.7,8.6c-6,3.1-12,6.1-18,9.2c-6.1,3.1-12.1,6.2-18.2,9.3
			c-5.8,3-11.5,5.9-17.3,8.9c-5.1,2.6-10.3,5.3-15.4,7.9c-4.1,2.1-8.2,4.2-12.3,6.3c-2.7,1.4-5.5,2.8-8.2,4.2c-1,0.5-2,1.1-3.1,1.6
			c-0.2,0.1-1.2,0.5-0.5,0.2c-0.6,0.2-1.1,0.4-1.7,0.6c-0.6,0.2-1.1,0.3-1.7,0.4c-0.7,0.1,0.6,0-0.1,0c-0.3,0-0.6,0-0.9,0.1
			c-0.5,0-1,0-1.5,0c-0.1,0-0.9,0-0.4,0c0.5,0-0.4-0.1-0.5-0.1c-0.5-0.1-1-0.2-1.6-0.4c-0.2-0.1-0.5-0.2-0.7-0.2
			c-0.8-0.3,0.3,0.2-0.2-0.1c-0.4-0.2-0.9-0.4-1.3-0.7c-0.2-0.1-0.4-0.3-0.6-0.4c-0.1-0.1-0.8-0.6-0.4-0.3c0.4,0.4-0.3-0.2-0.4-0.3
			c-0.2-0.2-0.3-0.3-0.5-0.5s-0.3-0.3-0.5-0.5c-0.1-0.1-0.6-0.8-0.3-0.4c0.3,0.4-0.1-0.2-0.2-0.3c-0.1-0.2-0.3-0.4-0.4-0.6
			c-0.1-0.2-0.2-0.4-0.3-0.6c-0.1-0.1-0.1-0.2-0.2-0.3c-0.3-0.6,0.1,0.5,0,0.1c-0.1-0.5-0.3-0.9-0.5-1.4c-0.1-0.2-0.1-0.5-0.2-0.7
			c0-0.1,0-0.3-0.1-0.4c-0.1-0.5-0.1,0,0,0.2c-0.3-0.5-0.1-1.8-0.1-2.5c0-1,0-2,0-2.9c0-3.7,0.1-7.4,0.1-11c0-5.4,0.1-10.8,0.1-16.3
			c0.1-6.5,0.1-13,0.2-19.5c0.1-6.8,0.1-13.6,0.2-20.4c0.1-6.5,0.1-13,0.2-19.4c0-5.5,0.1-10.9,0.1-16.4c0-3.7,0.1-7.5,0.1-11.2
			c0-1.3,0-2.7,0-4c0-1.8-1.6-3.6-3.5-3.5C368,380.1,366.4,381.5,366.4,383.5z"/>
	</g>
</g>
<g>
	<path class="st3" d="M475.5,574.3l199.3,94.4c16.9,8,36.3-4.4,36.3-23.1L710.4,373c0-18.7-19.4-31-36.3-23L415.4,472.4l-31.6,14.5
		c-19.9,9.1-19.8,37.5,0.2,46.4L475.5,574.3z"/>
	<g>
		<path class="st1" d="M473.7,577.3c2.3,1.1,4.6,2.2,6.9,3.3c6.2,2.9,12.3,5.8,18.5,8.8c8.9,4.2,17.8,8.5,26.8,12.7
			c10.5,5,21,10,31.5,14.9c11.1,5.3,22.2,10.5,33.3,15.8c10.5,5,21,10,31.5,14.9c8.8,4.2,17.6,8.4,26.4,12.5c6,2.8,12,5.7,18,8.5
			c2.9,1.4,5.8,2.9,8.8,4.1c16,6.3,34.6-3.9,38.3-20.6c0.8-3.8,0.7-7.6,0.7-11.4c0-5.3,0-10.7,0-16c0-8.3,0-16.6-0.1-24.8
			c0-10.4-0.1-20.7-0.1-31.1c0-11.7-0.1-23.5-0.1-35.2c0-12.3-0.1-24.6-0.1-36.8c0-12-0.1-24-0.1-36c0-10.9-0.1-21.8-0.1-32.8
			c0-9,0-18-0.1-27c0-6.4,0-12.7,0-19.1c0-2.9,0-5.7,0-8.6c-0.1-13.7-9.6-26.1-23.3-28.7c-6.3-1.2-12.6-0.3-18.4,2.4
			c-0.7,0.3-1.4,0.7-2.1,1c-3.9,1.8-7.8,3.7-11.7,5.5c-6.7,3.1-13.3,6.3-20,9.4c-8.8,4.1-17.5,8.3-26.3,12.4
			c-10.2,4.8-20.4,9.6-30.6,14.5c-11,5.2-21.9,10.4-32.9,15.6c-11,5.2-22.1,10.4-33.1,15.7c-10.5,5-21.1,10-31.6,15
			c-9.3,4.4-18.7,8.8-28,13.2c-7.5,3.5-14.9,7.1-22.4,10.6c-4.9,2.3-9.9,4.7-14.8,7c-1.8,0.8-3.5,1.7-5.3,2.5
			c-8.4,3.9-16.9,7.8-25.4,11.6c-3.4,1.5-7,2.9-10,5c-6.1,4.1-10.6,10.5-12.1,17.8c-2.8,13.3,3.9,26.9,16.3,32.6
			c5.5,2.5,11,4.9,16.5,7.4c10.5,4.7,20.9,9.4,31.4,14.1c10.1,4.5,20.3,9.1,30.4,13.6C465.1,573.4,469.4,575.4,473.7,577.3
			c1.7,0.8,3.8,0.5,4.8-1.3c0.9-1.5,0.5-4-1.3-4.8c-4.5-2-9.1-4.1-13.6-6.1c-10.1-4.5-20.1-9-30.2-13.5
			c-10.4-4.6-20.7-9.3-31.1-13.9c-5.5-2.4-10.9-4.9-16.4-7.3c-5-2.3-8.6-5.4-11.1-10.1c-1.2-2.4-2.2-5.8-2.4-8.3
			c-0.1-1.6-0.1-3.3,0.1-4.9c-0.1,0.5,0-0.3,0.1-0.5c0.1-0.4,0.1-0.8,0.2-1.2c0.2-0.8,0.4-1.6,0.6-2.4c0.5-1.6,0.8-2.4,1.8-4
			c0.4-0.7,0.9-1.4,1.4-2.1c0.4-0.5,0.1-0.2,0.5-0.6c0.3-0.3,0.6-0.7,0.8-1c2.2-2.4,4.5-4,7.6-5.4c3.2-1.5,6.4-2.9,9.6-4.4
			c7.4-3.4,14.7-6.7,22.1-10.1c2.1-1,4.2-2,6.2-3c5.1-2.4,10.2-4.8,15.4-7.3c7.6-3.6,15.1-7.2,22.7-10.7c9.3-4.4,18.6-8.8,27.9-13.2
			c10.5-5,21-9.9,31.5-14.9c10.9-5.2,21.9-10.4,32.8-15.5c10.8-5.1,21.6-10.2,32.4-15.3c10.1-4.8,20.1-9.5,30.2-14.3
			c8.6-4.1,17.3-8.2,25.9-12.3c6.6-3.1,13.1-6.2,19.7-9.3c3.9-1.8,7.7-3.7,11.6-5.5c0.7-0.3,1.5-0.7,2.2-1c1.4-0.6,2.8-1.1,4.2-1.5
			c3.4-0.8,7.1-0.8,10.4,0.1c6.6,1.7,12.5,6.6,15,13c1.2,3,1.6,5.8,1.6,9c0,3.2,0,6.5,0,9.7c0,6.6,0,13.1,0.1,19.7
			c0,9.2,0,18.3,0.1,27.5c0,10.9,0.1,21.8,0.1,32.7c0,11.9,0.1,23.9,0.1,35.8c0,12.1,0.1,24.2,0.1,36.3c0,11.6,0.1,23.2,0.1,34.8
			c0,10.2,0.1,20.4,0.1,30.6c0,8.1,0,16.2,0.1,24.3c0,5.2,0,10.5,0,15.7c0,3.4,0.2,6.9-0.6,10.1c-3.3,13.2-18.1,20.5-30.4,14.7
			c-2.6-1.2-5.2-2.5-7.8-3.7c-6.3-3-12.7-6-19-9c-8.9-4.2-17.8-8.5-26.8-12.7c-10.5-5-21-10-31.6-14.9
			c-10.9-5.2-21.9-10.4-32.8-15.6c-10.4-4.9-20.8-9.8-31.2-14.8c-8.7-4.1-17.3-8.2-26-12.3c-5.9-2.8-11.8-5.6-17.8-8.4
			c-2.1-1-4.2-2-6.3-3c-1.7-0.8-3.8-0.5-4.8,1.3C471.6,574.1,472,576.5,473.7,577.3z"/>
	</g>
</g>
<text transform="matrix(1 0 0 1 33.8588 894.9346)" class="st4 st5">Leanber</text>
</svg>
